# xmcd CD database file
# Copyright (C) 1995-1998 Ti Kan
#
# Track frame offsets:
#	150
#	10945
#	24622
#	38375
#	52142
#	64557
#	83332
#	92952
#	102797
#	115810
#	128722
#
# Disc length: 1901 seconds
#
# Revision: 1
# Processed by: cddbd v1.4b41PL1 Copyright (c) Steve Scherf et al.
# Submitted via: CDex 1.30Release
#
DISCID=7d076b0b
DTITLE=Tom T. Hall - The Hits
DYEAR=1900
DGENRE=Country
TTITLE0=Little Bitty
TTITLE1=That's How I Got To Memphis
TTITLE2=Ballad of Foty Dollars
TTITLE3=A Week in a Country Jail
TTITLE4=The Year That Clayton Delaney Died
TTITLE5=Old Dogs, Children and Watermelon Wine
TTITLE6=I Love
TTITLE7=Country Is
TTITLE8=I Like Beer
TTITLE9=Faster Horses (The Cowboy and The Poet)
TTITLE10=That Song is Driving Me Crazy
EXTD=ID3G:   2
EXTT0=
EXTT1=
EXTT2=
EXTT3=
EXTT4=
EXTT5=
EXTT6=
EXTT7=
EXTT8=
EXTT9=
EXTT10=
PLAYORDER=
